<?xml version="1.0" standalone="no"?>
<!DOCTYPE svg PUBLIC "-//W3C//DTD SVG 20010904//EN"
 "http://www.w3.org/TR/2001/REC-SVG-20010904/DTD/svg10.dtd">
<svg version="1.0" xmlns="http://www.w3.org/2000/svg"
 width="1080.000000pt" height="1080.000000pt" viewBox="0 0 1080.000000 1080.000000"
 preserveAspectRatio="xMidYMid meet">

<g transform="translate(0.000000,1080.000000) scale(0.100000,-0.100000)"
fill="#000000" stroke="none">
<path d="M6150 9124 c-6 -14 -10 -35 -10 -48 0 -12 -4 -26 -9 -31 -5 -6 -14
-30 -20 -55 -13 -56 -46 -170 -54 -190 -4 -8 -11 -33 -16 -55 -17 -69 -39
-148 -55 -199 -9 -26 -14 -52 -11 -56 3 -5 38 -18 78 -29 39 -12 92 -28 117
-36 115 -35 168 -47 224 -47 122 1 186 63 186 181 0 58 -2 64 -41 106 l-41 45
24 9 c35 13 86 59 103 92 31 59 10 154 -44 197 -30 23 -106 59 -141 67 -19 3
-53 13 -75 20 -52 17 -188 55 -198 55 -4 0 -12 -12 -17 -26z m203 -81 c142
-43 178 -62 206 -109 28 -46 26 -71 -7 -119 -41 -59 -86 -69 -194 -44 -46 11
-109 26 -142 34 -80 19 -84 24 -64 88 9 28 24 77 33 107 23 79 23 80 35 80 6
0 66 -17 133 -37z m-99 -302 c59 -17 113 -31 120 -31 19 0 100 -46 121 -70 10
-11 20 -41 22 -67 5 -61 -22 -108 -75 -130 -40 -17 -99 -11 -212 21 -30 8 -83
23 -117 33 -35 10 -63 22 -63 27 0 6 11 46 24 90 14 45 30 101 36 124 8 30 16
42 25 38 7 -2 61 -18 119 -35z"/>
<path d="M4788 8990 c-20 -11 -49 -38 -65 -60 -15 -22 -31 -40 -34 -40 -3 0
-12 18 -19 40 -14 44 -36 52 -49 18 -8 -22 9 -143 28 -191 6 -16 11 -43 11
-62 0 -18 6 -55 14 -81 8 -27 18 -74 23 -104 7 -50 10 -55 33 -55 24 0 25 3
24 55 -1 30 -9 86 -18 123 -23 92 -24 199 -1 234 25 39 65 71 98 78 23 6 28
11 25 33 -4 34 -23 37 -70 12z"/>
<path d="M4209 8841 c-73 -15 -141 -76 -175 -156 -18 -45 -18 -132 1 -169 8
-15 15 -35 15 -42 0 -20 65 -89 108 -116 31 -19 50 -23 127 -22 94 1 125 10
192 60 28 22 63 74 63 96 0 22 -41 4 -83 -37 -103 -98 -255 -94 -326 11 -13
19 -22 35 -20 37 19 11 78 36 94 40 11 3 52 17 90 32 39 14 105 38 148 53 42
14 77 31 77 37 0 27 -64 117 -103 143 -47 33 -140 47 -208 33z m136 -57 c30
-11 68 -42 87 -72 l17 -26 -47 -23 c-26 -13 -53 -23 -60 -23 -8 0 -28 -6 -45
-14 -18 -8 -45 -19 -62 -24 -16 -6 -55 -20 -84 -31 -63 -24 -71 -19 -71 42 0
43 27 102 62 135 14 12 49 31 78 41 51 18 67 18 125 -5z"/>
<path d="M6800 8670 l0 -30 68 0 c91 -1 157 -35 189 -100 19 -37 21 -51 13
-80 -22 -78 -23 -79 -153 -15 -107 52 -122 57 -168 53 -57 -6 -87 -29 -114
-88 -27 -59 -14 -102 45 -160 65 -61 139 -88 203 -73 l45 10 -5 -35 c-6 -33 6
-51 33 -52 5 0 25 30 43 68 18 37 50 101 72 142 70 130 81 179 55 241 -34 80
-159 149 -271 149 -54 0 -55 0 -55 -30z m104 -271 c105 -52 107 -54 95 -87
-41 -107 -186 -122 -279 -29 -46 46 -51 80 -19 121 44 56 82 55 203 -5z"/>
<path d="M5293 8610 c-40 -16 -22 -88 23 -90 13 0 54 38 54 50 0 12 -37 50
-47 49 -5 0 -18 -4 -30 -9z"/>
<path d="M3623 8570 c-69 -35 -101 -71 -130 -150 l-21 -55 -22 38 c-23 38 -28
41 -54 31 -23 -9 -20 -28 11 -77 15 -23 32 -50 38 -59 5 -10 34 -57 63 -105
29 -48 58 -97 65 -108 6 -11 23 -38 37 -60 14 -22 30 -51 37 -65 31 -62 90
-145 105 -148 9 -2 21 6 27 16 9 17 2 34 -37 97 -49 79 -81 136 -82 145 0 3
31 4 69 2 76 -5 117 9 183 60 110 86 116 262 12 377 -86 95 -190 116 -301 61z
m186 -50 c54 -27 104 -89 124 -152 16 -51 16 -56 -2 -103 -38 -99 -128 -156
-223 -141 -137 22 -220 186 -156 306 51 96 167 136 257 90z"/>
<path d="M7307 8341 c-78 -37 -139 -114 -157 -199 -23 -106 19 -200 123 -277
37 -27 49 -30 112 -30 68 0 70 1 70 25 0 21 -4 25 -25 23 -54 -4 -119 19 -163
57 -135 120 -33 360 153 360 83 0 168 -67 190 -151 21 -77 66 -62 55 17 -6 42
-15 57 -64 105 -87 85 -202 113 -294 70z"/>
<path d="M3100 8183 c-58 -28 -109 -72 -138 -121 -23 -41 -27 -57 -27 -127 1
-91 15 -127 74 -188 75 -79 199 -104 291 -57 72 37 132 107 153 179 18 61 18
63 -3 131 -25 81 -82 148 -153 180 -53 25 -149 26 -197 3z m199 -78 c48 -33
111 -132 111 -175 0 -26 -39 -113 -62 -140 -30 -36 -88 -62 -141 -62 -66 -1
-120 26 -170 82 -82 94 -55 248 56 308 60 33 146 28 206 -13z"/>
<path d="M7894 8077 c-66 -61 -184 -170 -263 -241 -140 -127 -155 -147 -119
-169 13 -9 26 -1 67 35 l51 46 63 -5 c107 -8 107 -8 107 -56 0 -23 -7 -66 -14
-95 -22 -82 -31 -199 -16 -217 18 -22 39 -18 45 8 3 12 9 56 14 97 8 65 19
133 37 229 5 23 7 23 80 17 40 -3 109 -9 152 -12 l77 -7 -24 27 c-15 16 -35
26 -52 26 -16 0 -72 7 -126 15 -54 8 -137 17 -185 20 -49 4 -88 10 -88 14 0 4
44 46 98 93 53 47 135 121 182 166 85 79 85 80 66 101 -11 11 -22 21 -25 21
-3 0 -60 -51 -127 -113z"/>
<path d="M2527 7923 c-18 -17 -1 -44 71 -106 43 -37 89 -75 103 -84 13 -10 42
-34 64 -55 22 -20 70 -60 105 -89 36 -28 94 -76 129 -107 50 -44 66 -54 80
-45 33 21 22 47 -42 99 -135 110 -284 233 -376 311 -90 77 -118 93 -134 76z"/>
<path d="M2565 7521 c-82 -21 -141 -79 -175 -169 -25 -67 -25 -98 1 -164 62
-160 257 -226 396 -134 80 53 138 164 131 251 -2 33 -7 41 -25 43 -21 3 -23
-1 -23 -36 0 -59 -37 -145 -78 -185 -23 -22 -57 -41 -89 -51 -47 -13 -57 -13
-98 1 -25 8 -45 18 -45 22 0 5 45 80 101 167 144 226 137 206 83 232 -49 24
-133 35 -179 23z m137 -69 c13 -13 -2 -41 -100 -194 l-89 -137 -30 32 c-43 45
-53 69 -53 122 0 77 62 165 132 187 29 9 128 2 140 -10z"/>
<path d="M8066 7486 c-66 -33 -113 -81 -143 -145 -21 -45 -24 -65 -20 -110 10
-106 87 -214 174 -245 22 -8 44 -12 47 -9 16 17 2 42 -36 63 -24 12 -51 30
-61 38 -29 26 -67 118 -67 164 0 49 35 124 68 146 20 13 23 11 49 -33 15 -25
46 -74 68 -107 22 -34 46 -73 54 -87 33 -60 81 -131 90 -131 5 0 30 20 55 45
85 82 107 178 62 278 -60 136 -211 195 -340 133z m185 -45 c78 -35 119 -98
119 -182 0 -56 -27 -116 -62 -138 -11 -7 -21 -11 -23 -9 -1 2 -24 37 -50 78
-26 41 -59 93 -74 115 -14 22 -36 59 -48 82 l-23 42 27 15 c38 21 82 20 134
-3z"/>
<path d="M2226 7085 c-10 -28 9 -53 156 -204 81 -82 151 -159 157 -169 16 -29
-5 -32 -255 -32 l-221 0 -11 -25 c-7 -14 -12 -29 -12 -32 0 -3 109 -2 243 2
133 5 256 8 273 7 33 -2 74 28 74 54 0 16 -376 414 -390 414 -4 0 -10 -7 -14
-15z"/>
<path d="M8560 6988 c-14 -5 -38 -16 -55 -23 -16 -7 -52 -21 -80 -30 -27 -10
-63 -23 -80 -30 -16 -7 -55 -21 -85 -32 -30 -12 -70 -26 -88 -33 -33 -13 -53
-53 -35 -71 8 -8 99 21 193 64 77 34 159 45 207 26 81 -30 136 -140 113 -224
-17 -62 -40 -75 -310 -178 -69 -26 -74 -30 -65 -56 9 -29 30 -27 138 14 269
104 300 129 299 253 -1 37 -6 79 -12 92 -32 73 -63 107 -112 127 -44 18 -48
30 -13 39 32 8 47 33 34 57 -11 19 -14 20 -49 5z"/>
<path d="M2080 6452 c-96 -49 -144 -156 -125 -275 12 -75 74 -148 153 -184 55
-24 177 -23 222 2 43 24 100 75 100 90 0 6 5 16 12 23 6 6 20 42 30 79 16 62
16 73 2 128 -8 33 -21 67 -29 75 -13 12 -17 12 -32 -3 -16 -16 -16 -19 0 -52
39 -82 4 -208 -75 -265 -34 -25 -51 -30 -96 -30 -51 0 -54 1 -49 23 3 12 13
58 22 102 9 44 21 94 26 112 12 38 31 138 33 173 1 24 -1 25 -69 28 -60 2 -77
-1 -125 -26z m143 -44 c2 -7 -2 -31 -9 -53 -7 -22 -22 -85 -34 -140 -34 -160
-34 -160 -56 -157 -46 7 -105 74 -123 138 -18 67 45 187 113 214 33 13 104 12
109 -2z"/>
<path d="M8535 6322 c-101 -35 -144 -76 -177 -169 -20 -60 -19 -116 5 -172 17
-40 63 -95 91 -111 34 -18 33 -30 -1 -30 -35 0 -48 -9 -57 -36 -9 -29 11 -35
76 -23 29 6 89 15 133 21 44 5 101 16 127 24 26 8 66 14 90 14 24 1 63 5 88
11 25 6 76 14 114 19 88 12 96 15 96 40 0 30 -24 35 -109 21 -122 -20 -196
-30 -199 -26 -2 1 11 23 29 49 29 41 32 52 32 118 -1 125 -58 209 -168 247
-71 25 -103 25 -170 3z m165 -69 c30 -16 68 -45 84 -66 29 -36 31 -45 31 -116
0 -71 -2 -80 -32 -117 -65 -82 -192 -110 -278 -61 -96 54 -134 180 -81 270 33
55 45 66 110 94 68 29 102 28 166 -4z"/>
<path d="M1959 5876 c-111 -26 -210 -119 -241 -227 -6 -25 -13 -127 -15 -231
l-4 -188 345 0 346 0 6 26 c4 14 4 101 1 193 -6 177 -14 215 -67 296 -71 109
-226 164 -371 131z m190 -72 c61 -18 127 -77 162 -146 20 -38 23 -63 27 -201
l5 -157 -294 2 -294 3 1 140 c0 120 4 148 23 196 57 146 207 212 370 163z"/>
<path d="M8413 5358 c-14 -18 -31 -111 -43 -238 -5 -58 -14 -130 -20 -160 -10
-58 -4 -74 26 -68 14 2 20 13 22 38 1 19 7 58 13 85 6 28 17 102 23 165 l11
115 55 -1 c30 -1 90 -7 133 -15 l77 -13 0 -60 c0 -34 -6 -92 -14 -131 -8 -38
-16 -92 -18 -120 -2 -48 -1 -50 25 -53 15 -2 27 0 28 5 0 4 5 49 9 98 5 50 14
128 21 174 l14 83 45 -6 c162 -21 192 -26 198 -30 9 -5 -4 -180 -18 -246 -5
-25 -12 -69 -15 -97 l-7 -53 29 0 30 0 12 98 c30 244 41 355 37 360 -3 2 -47
8 -98 13 -51 4 -115 13 -143 18 -27 5 -72 10 -100 10 -27 1 -81 7 -120 15
-117 24 -200 29 -212 14z"/>
<path d="M2367 4818 c-2 -7 10 -26 27 -43 69 -65 96 -150 76 -233 -12 -50 -28
-74 -74 -110 -41 -32 -54 -28 -66 21 -6 23 -15 53 -19 67 -5 14 -19 59 -31
100 -66 224 -63 219 -144 174 -128 -71 -163 -223 -83 -360 23 -40 41 -55 91
-82 42 -22 64 -26 121 -26 45 1 81 7 100 17 17 9 35 17 40 17 16 0 91 80 109
117 24 48 21 175 -5 233 -37 84 -126 150 -142 108z m-160 -113 c8 -22 18 -56
22 -75 7 -32 15 -56 58 -189 17 -55 8 -64 -57 -56 -133 17 -211 168 -145 281
27 46 72 85 93 81 8 -1 21 -20 29 -42z"/>
<path d="M8306 4768 c-8 -33 16 -49 120 -82 191 -60 246 -99 260 -183 17 -110
-51 -213 -142 -213 -41 0 -106 16 -169 41 -73 29 -179 60 -191 55 -8 -3 -14
-16 -14 -29 0 -23 13 -29 171 -81 93 -31 186 -56 205 -56 40 0 99 28 131 62
61 65 82 196 43 272 l-19 38 27 -6 c15 -3 37 -8 50 -12 19 -5 22 -3 22 19 0
16 -8 31 -19 37 -22 11 -289 104 -361 125 -25 7 -58 18 -73 24 -36 14 -34 15
-41 -11z"/>
<path d="M7990 4281 c-139 -60 -250 -255 -211 -373 24 -73 85 -118 414 -307
61 -35 115 -60 123 -57 22 9 13 49 -14 62 -45 22 -43 30 10 43 78 20 138 85
167 179 24 77 23 103 -9 177 -53 123 -217 183 -338 123 -99 -50 -161 -164
-148 -273 3 -30 3 -55 -1 -55 -17 0 -104 65 -127 95 -34 44 -34 95 -1 169 28
63 101 142 145 158 17 5 30 15 30 22 0 21 -24 44 -40 37z m318 -207 c71 -29
132 -110 132 -174 0 -65 -54 -154 -121 -195 -76 -49 -187 -23 -251 57 -95 121
5 328 160 328 23 0 59 -7 80 -16z"/>
<path d="M2610 4155 c-77 -40 -161 -78 -211 -95 -50 -18 -115 8 -169 67 -43
48 -63 51 -67 12 -4 -33 33 -72 96 -102 l53 -25 -23 -16 c-13 -9 -29 -16 -36
-16 -17 0 -17 -21 0 -44 12 -17 16 -16 73 12 61 31 219 106 337 161 37 17 67
34 67 37 0 17 -23 44 -38 43 -9 0 -46 -15 -82 -34z"/>
<path d="M2745 3969 c-22 -17 -65 -47 -95 -66 -30 -20 -57 -38 -60 -42 -3 -3
-18 -13 -34 -21 -43 -22 -116 -108 -118 -139 -4 -74 3 -94 60 -179 38 -55 119
-116 149 -110 28 5 29 45 1 53 -38 12 -107 74 -128 115 -11 22 -20 58 -20 80
0 34 7 48 40 83 46 50 57 47 107 -29 95 -144 126 -169 205 -169 49 0 61 4 88
30 46 44 57 92 36 159 -24 75 -79 136 -146 160 l-53 19 27 24 c27 23 28 25 11
43 -23 25 -22 25 -70 -11z m62 -110 c42 -16 83 -58 108 -113 27 -56 20 -93
-22 -126 -42 -33 -89 -27 -132 19 -41 44 -121 156 -121 171 0 5 17 21 37 35
40 27 84 32 130 14z"/>
<path d="M7735 3648 c-15 -22 -14 -24 22 -57 130 -114 350 -281 368 -279 39 6
23 42 -41 96 -93 77 -325 262 -329 262 -2 0 -11 -10 -20 -22z"/>
<path d="M2925 3375 c-186 -92 -229 -117 -227 -132 6 -31 15 -32 62 -7 25 13
52 26 60 29 8 4 83 39 165 79 83 41 152 69 154 64 3 -8 -17 -62 -49 -133 -5
-11 -28 -65 -50 -120 -23 -55 -48 -114 -56 -132 -18 -40 -18 -46 5 -67 18 -16
22 -16 77 13 33 16 84 41 114 56 30 14 62 30 70 34 42 24 168 81 178 81 14 0
16 -22 3 -35 -5 -6 -28 -55 -51 -110 -48 -115 -69 -162 -82 -189 -6 -10 -16
-36 -23 -57 -13 -34 -12 -40 5 -61 l19 -23 26 60 c15 33 30 69 35 80 35 87 84
204 116 279 41 95 39 118 -7 124 -15 2 -98 -33 -213 -88 -103 -50 -192 -90
-196 -88 -8 3 29 107 60 173 33 70 90 224 90 242 0 20 -27 44 -47 42 -4 0
-111 -52 -238 -114z"/>
<path d="M7596 3471 c-16 -18 -15 -22 30 -72 26 -30 65 -72 87 -94 55 -56 81
-93 100 -142 16 -41 16 -46 -4 -98 -23 -61 -82 -120 -131 -130 -71 -16 -96 -1
-229 136 -69 71 -131 129 -137 129 -6 0 -16 -9 -22 -21 -10 -17 -5 -27 32 -67
209 -224 233 -242 321 -242 42 0 62 6 102 33 57 37 115 118 116 162 0 16 4 38
8 48 6 16 9 16 31 -8 28 -30 46 -32 60 -6 7 14 6 23 -3 33 -6 7 -57 63 -112
123 -223 246 -223 245 -249 216z"/>
<path d="M8250 3240 c-24 -24 -25 -43 -5 -60 39 -32 98 29 62 65 -21 20 -33
19 -57 -5z"/>
<path d="M3656 3043 c-15 -15 -3 -35 29 -49 84 -35 97 -92 42 -181 -18 -28
-54 -88 -81 -132 -27 -45 -55 -86 -63 -92 -10 -9 -27 -3 -74 26 l-61 37 -20
-20 -20 -20 57 -33 c76 -45 84 -59 57 -94 -25 -31 -28 -55 -10 -73 20 -20 32
-14 61 33 28 44 29 45 57 30 65 -34 104 -2 44 35 -18 12 -34 27 -33 33 0 7 13
31 27 54 131 205 162 261 162 294 0 46 -28 98 -68 123 -38 24 -95 40 -106 29z"/>
<path d="M7040 3006 c-101 -33 -197 -129 -188 -188 5 -39 35 -33 57 10 29 56
88 105 152 125 54 17 57 17 111 -3 30 -11 66 -32 79 -46 l24 -26 -23 -17 c-34
-23 -228 -145 -284 -178 -61 -36 -64 -64 -10 -115 56 -54 91 -68 172 -68 80 0
127 19 179 71 51 51 74 106 74 174 -1 182 -178 316 -343 261z m280 -218 c38
-141 -98 -269 -244 -228 -40 11 -96 51 -96 68 0 4 18 18 40 32 22 14 40 28 40
32 0 5 5 8 11 8 6 0 42 19 80 43 121 74 144 87 151 87 4 0 12 -19 18 -42z"/>
<path d="M4034 2703 c-121 -253 -135 -283 -146 -289 -6 -4 -36 6 -68 21 -61
29 -90 28 -90 -2 0 -13 20 -27 66 -47 61 -27 65 -31 59 -55 -3 -14 -19 -42
-34 -61 -39 -49 -82 -52 -140 -10 -39 29 -45 30 -59 16 -14 -14 -14 -18 9 -42
28 -31 99 -64 137 -64 39 0 87 33 117 79 14 23 25 45 25 50 0 19 18 21 52 6
26 -10 38 -11 46 -3 21 21 13 39 -23 54 -19 8 -35 16 -35 19 0 5 75 164 139
294 28 57 51 110 51 117 0 12 -29 34 -45 34 -3 0 -31 -53 -61 -117z"/>
<path d="M6509 2740 c-100 -33 -156 -78 -172 -138 -10 -43 21 -37 71 12 53 53
118 86 168 86 69 0 165 -55 177 -102 6 -21 -14 -32 -163 -88 -41 -16 -111 -44
-156 -62 l-80 -34 14 -34 c17 -44 76 -106 124 -131 89 -45 226 -15 298 67 45
51 60 93 60 161 -1 136 -76 235 -202 269 -66 17 -70 17 -139 -6z m279 -263 c8
-127 -117 -222 -245 -188 -37 10 -113 76 -113 99 0 9 27 21 170 77 52 20 109
43 125 50 48 22 60 16 63 -38z"/>
<path d="M4312 2653 c-59 -29 -109 -89 -131 -159 -26 -77 -26 -112 -3 -176 26
-77 100 -140 190 -162 62 -15 74 -15 127 -2 31 9 65 21 74 28 89 67 121 129
121 233 0 55 -5 86 -19 114 -23 45 -91 108 -137 127 -47 20 -180 18 -222 -3z
m194 -46 c109 -42 156 -171 104 -286 -27 -59 -56 -86 -117 -110 -52 -20 -79
-19 -148 8 -60 24 -125 115 -125 175 0 73 70 184 135 212 37 16 109 17 151 1z"/>
<path d="M6114 2608 c-11 -17 -7 -63 11 -123 8 -27 21 -85 29 -128 13 -68 13
-83 0 -126 -16 -55 -53 -93 -109 -111 -35 -12 -42 -24 -26 -49 22 -35 138 32
156 90 10 31 24 21 31 -21 5 -32 11 -40 28 -40 40 0 44 11 30 65 -8 28 -18 74
-24 103 -5 29 -14 68 -19 85 -5 18 -19 77 -31 132 -12 55 -24 108 -27 118 -5
20 -38 23 -49 5z"/>
<path d="M4902 2536 c-19 -6 -51 -26 -72 -46 -61 -56 -67 -157 -13 -221 23
-27 132 -86 193 -104 49 -14 115 -49 137 -73 31 -33 31 -99 1 -137 -23 -30
-96 -65 -134 -65 -34 0 -120 26 -166 50 -59 31 -108 21 -77 -16 43 -52 186
-83 311 -69 56 7 67 12 106 50 42 42 42 43 42 116 0 112 -21 132 -214 210
-133 53 -166 81 -166 138 0 22 5 51 11 63 16 36 85 68 145 68 64 0 168 -35
215 -72 41 -32 64 -35 73 -12 8 22 9 21 -16 44 -29 27 -109 64 -171 79 -57 13
-160 12 -205 -3z"/>
<path d="M5521 2516 c-7 -8 -11 -27 -9 -43 4 -34 47 -54 72 -33 21 17 21 76 0
84 -26 10 -51 7 -63 -8z"/>
</g>
</svg>
